HIERARCHY
ROOT Hips
{
	OFFSET 0.000000 0.000000 0.000000
	CHANNELS 6 Xposition Yposition Zposition Xrotation Yrotation Zrotation
	JOINT LeftUpLeg_virtual
	{
		OFFSET 0.000000 0.000000 0.000000
		CHANNELS 3 Xrotation Yrotation Zrotation
		JOINT LeftUpLeg
		{
			OFFSET 15.427100 -6.655098 0.678600
			CHANNELS 3 Xrotation Yrotation Zrotation
			JOINT LeftLeg
			{
				OFFSET 4.081073 -39.591068 13.024000
				CHANNELS 3 Xrotation Yrotation Zrotation
				JOINT LeftFoot
				{
					OFFSET -4.081074 -37.707932 -15.979700
					CHANNELS 3 Xrotation Yrotation Zrotation
					JOINT LeftToeBase
					{
						OFFSET 5.346399 -15.068900 20.645000
						CHANNELS 3 Xrotation Yrotation Zrotation
						JOINT LeftToe_End
						{
							OFFSET 2.754700 0.931300 11.300900
							CHANNELS 3 Xrotation Yrotation Zrotation
							End Site
							{
								OFFSET 0 0 0
							}
						}
					}
				}
			}
		}
	}
	JOINT RightUpLeg_virtual
	{
		OFFSET 0.000000 0.000000 0.000000
		CHANNELS 3 Xrotation Yrotation Zrotation
		JOINT RightUpLeg
		{
			OFFSET -15.569500 -6.655098 0.678600
			CHANNELS 3 Xrotation Yrotation Zrotation
			JOINT RightLeg
			{
				OFFSET -4.081825 -39.591045 13.023800
				CHANNELS 3 Xrotation Yrotation Zrotation
				JOINT RightFoot
				{
					OFFSET 4.081824 -37.707954 -15.979600
					CHANNELS 3 Xrotation Yrotation Zrotation
					JOINT RightToeBase
					{
						OFFSET -5.346400 -15.068900 20.645000
						CHANNELS 3 Xrotation Yrotation Zrotation
						JOINT RightToe_End
						{
							OFFSET -2.754700 0.931300 11.300900
							CHANNELS 3 Xrotation Yrotation Zrotation
							End Site
							{
								OFFSET 0 0 0
							}
						}
					}
				}
			}
		}
	}
	JOINT Spine_virtual
	{
		OFFSET 0.000000 0.000000 0.000000
		CHANNELS 3 Xrotation Yrotation Zrotation
		JOINT Spine
		{
			OFFSET -0.279200 12.230698 -2.892100
			CHANNELS 3 Xrotation Yrotation Zrotation
			JOINT Spine1
			{
				OFFSET -0.232667 10.192268 -1.242267
				CHANNELS 3 Xrotation Yrotation Zrotation
				JOINT Spine1_split
				{
					OFFSET -0.232667 10.192268 -1.242267
					CHANNELS 3 Xrotation Yrotation Zrotation
					JOINT Spine2
					{
						OFFSET -0.232667 10.192268 -1.242267
						CHANNELS 3 Xrotation Yrotation Zrotation
						JOINT Neck_virtual
						{
							OFFSET 0.000000 0.000000 0.000000
							CHANNELS 3 Xrotation Yrotation Zrotation
							JOINT Neck
							{
								OFFSET -0.418800 17.814194 8.416900
								CHANNELS 3 Xrotation Yrotation Zrotation
								JOINT Head
								{
									OFFSET 0.000000 7.031097 3.806800
									CHANNELS 3 Xrotation Yrotation Zrotation
									JOINT HeadTop_End
									{
										OFFSET 0.000000 24.646606 12.978600
										CHANNELS 3 Xrotation Yrotation Zrotation
										End Site
										{
											OFFSET 0 0 0
										}
									}
								}
							}
						}
						JOINT LeftShoulder_virtual
						{
							OFFSET 0.000000 0.000000 0.000000
							CHANNELS 3 Xrotation Yrotation Zrotation
							JOINT LeftShoulder
							{
								OFFSET 8.476499 7.247704 -3.868750
								CHANNELS 3 Xrotation Yrotation Zrotation
								JOINT LeftShoulder_split
								{
									OFFSET 8.476499 7.247704 -3.868750
									CHANNELS 3 Xrotation Yrotation Zrotation
									JOINT LeftArm
									{
										OFFSET 9.308998 -2.777710 0.208600
										CHANNELS 3 Xrotation Yrotation Zrotation
										JOINT LeftForeArm
										{
											OFFSET 29.972298 0.000000 0.000000
											CHANNELS 3 Xrotation Yrotation Zrotation
											JOINT LeftHand
											{
												OFFSET 26.026505 0.000000 0.000000
												CHANNELS 3 Xrotation Yrotation Zrotation
												End Site
												{
													OFFSET 0 0 0
												}
											}
										}
									}
								}
							}
						}
						JOINT RightShoulder_virtual
						{
							OFFSET 0.000000 0.000000 0.000000
							CHANNELS 3 Xrotation Yrotation Zrotation
							JOINT RightShoulder
							{
								OFFSET -7.570500 7.247704 -3.868750
								CHANNELS 3 Xrotation Yrotation Zrotation
								JOINT RightShoulder_split
								{
									OFFSET -7.570500 7.247704 -3.868750
									CHANNELS 3 Xrotation Yrotation Zrotation
									JOINT RightArm
									{
										OFFSET -9.308998 -2.777710 0.208500
										CHANNELS 3 Xrotation Yrotation Zrotation
										JOINT RightForeArm
										{
											OFFSET -29.972300 0.000000 0.000000
											CHANNELS 3 Xrotation Yrotation Zrotation
											JOINT RightHand
											{
												OFFSET -26.026505 0.000000 0.000000
												CHANNELS 3 Xrotation Yrotation Zrotation
												End Site
												{
													OFFSET 0 0 0
												}
											}
										}
									}
								}
							}
						}
					}
				}
			}
		}
	}
}
MOTION
Frames: 7
Frame Time: 0.03333333
0.251061 96.717850 -18.849121 0.000000 0.000000 0.000000 -3.961291 5.888657 5.053435 -3.421585 21.249671 -4.354868 8.158075 1.952894 3.458842 -1.200677 2.596935 -3.156293 -1.239282 -2.603777 0.203493 0.000000 0.000000 0.000000 -3.598914 5.109028 4.874983 -2.260030 -8.593561 -4.513458 13.796439 4.852437 -2.340216 -9.340919 -16.855295 11.856073 2.691278 5.444701 -12.851750 0.000000 0.000000 0.000000 -6.243532 14.250000 5.715250 8.488603 -6.657395 -1.596164 8.961003 3.439891 -3.155007 0.047657 -0.757861 -0.102509 0.000000 0.000000 0.000000 8.551903 5.903477 -1.756917 8.426460 5.961227 11.019971 18.029263 -57.274001 2.183435 0.000000 0.000000 0.000000 8.588863 5.425871 -2.750039 1.125803 -11.790560 -23.090240 6.110876 -9.731596 -5.511479 -4.627364 -48.955599 -38.636184 12.109346 -19.960806 8.749830 0.000000 0.000000 0.000000 7.744577 3.390048 -3.371820 -1.348841 20.463639 24.693480 -3.685318 -0.919371 5.031809 5.250415 40.159672 40.526798 11.125778 35.025224 3.867689 0.000000 0.000000 0.000000 
0.883548 97.515411 -19.010559 0.000000 0.000000 0.000000 -4.967701 4.199603 5.925992 -0.150752 22.476027 -5.769442 5.473382 2.026152 3.029298 -1.033817 3.093817 -3.486322 -0.116922 -2.428855 0.094352 0.000000 0.000000 0.000000 -4.582447 4.399425 5.690133 -0.307852 -9.584028 -5.418443 11.676587 5.244468 -2.019931 -9.983753 -16.261536 10.410705 3.508276 5.081951 -12.496523 0.000000 0.000000 0.000000 -7.577128 13.294271 6.173470 8.237342 -6.537539 -2.161931 7.752147 2.539171 -3.359427 0.126492 -0.736863 0.039081 0.000000 0.000000 0.000000 7.455994 5.050825 -1.714468 7.706244 6.373063 9.576204 15.112190 -50.886631 1.965223 0.000000 0.000000 0.000000 7.310197 4.682271 -2.656529 1.929477 -8.366673 -20.286886 5.399727 -8.988160 -4.073046 -5.353523 -46.518882 -43.846693 13.504525 -18.337431 10.485232 0.000000 0.000000 0.000000 6.356934 2.405385 -3.328487 -0.100267 18.537950 22.532277 -4.354209 -1.532037 4.038255 9.558355 43.357621 40.715495 13.313275 37.274016 2.497799 0.000000 0.000000 0.000000 
1.372082 97.933960 -19.090714 0.000000 0.000000 0.000000 -5.595893 2.675746 6.614503 2.188032 23.038865 -6.738584 3.814533 2.082567 2.626880 -0.901468 3.449743 -3.638448 0.650220 -2.221101 -0.258549 0.000000 0.000000 0.000000 -5.354888 3.825517 6.412927 0.616870 -10.556464 -6.369969 10.551951 5.751765 -1.664787 -10.106374 -16.008739 10.343922 3.501800 4.849378 -12.608021 0.000000 0.000000 0.000000 -8.192750 12.499953 6.323476 7.835442 -6.332142 -2.596909 6.664526 1.805679 -3.552144 0.135440 -0.648942 0.155313 0.000000 0.000000 0.000000 6.571339 4.367643 -1.739031 7.360699 6.309294 8.322647 10.604767 -45.845937 0.859707 0.000000 0.000000 0.000000 6.179279 4.071047 -2.639811 2.514736 -5.943198 -16.796798 5.063661 -8.545303 -2.612851 -4.143505 -42.697838 -47.272224 16.081144 -18.840255 12.303619 0.000000 0.000000 0.000000 4.952380 1.625548 -3.237220 1.173277 15.931005 19.780603 -4.711981 -2.248286 3.039371 12.705159 44.829158 41.006034 14.687205 40.960815 1.908262 0.000000 0.000000 0.000000 
1.699704 98.041176 -19.173637 0.000000 0.000000 0.000000 -6.013521 1.576113 7.058397 3.303481 23.035959 -7.093883 3.303532 2.013125 2.291654 -0.604326 3.511892 -3.855485 0.819675 -1.978479 -0.940764 0.000000 0.000000 0.000000 -5.931331 3.355780 6.929982 0.712411 -11.203040 -7.295048 10.205528 6.466880 -1.343743 -9.771121 -15.951099 11.569600 2.816583 4.731690 -12.986794 0.000000 0.000000 0.000000 -8.234726 11.754995 6.250747 7.272658 -5.947633 -2.689112 5.759767 1.327017 -3.744791 0.155801 -0.614616 0.215177 0.000000 0.000000 0.000000 5.922892 3.929155 -1.851136 7.062770 5.807794 7.386890 4.745173 -41.947948 -1.305252 0.000000 0.000000 0.000000 5.281469 3.621194 -2.800615 2.896683 -4.787587 -13.162811 4.654266 -8.307808 -1.892805 -2.137387 -37.299277 -49.377142 19.750228 -20.531129 14.119634 0.000000 0.000000 0.000000 3.682573 1.183112 -3.147921 2.244172 13.062945 16.820038 -5.436217 -2.925088 2.556205 14.329488 44.552682 41.442866 14.975533 44.042296 2.453850 0.000000 0.000000 0.000000 
2.020789 97.920731 -19.207283 0.000000 0.000000 0.000000 -6.300712 1.063979 7.235845 3.424726 22.666601 -7.017786 3.650471 1.953155 2.095621 -0.293411 3.362409 -3.901771 0.561175 -1.734136 -1.677167 0.000000 0.000000 0.000000 -6.300778 2.905273 7.171984 0.416202 -11.452422 -8.038754 10.412017 7.091320 -1.101386 -9.480224 -16.135099 13.076332 2.903632 4.570292 -13.403984 0.000000 0.000000 0.000000 -7.895299 11.021678 6.090843 6.594940 -5.389480 -2.389796 5.074656 1.092974 -3.932462 0.125321 -0.652039 0.217748 0.000000 0.000000 0.000000 5.506358 3.703111 -2.038448 6.599667 4.959727 6.744712 -1.873375 -38.842671 -4.429523 0.000000 0.000000 0.000000 4.572871 3.329067 -3.144310 3.117679 -4.816910 -10.142516 3.850208 -7.910273 -1.542798 -0.665438 -30.513781 -50.936733 24.100251 -21.734193 15.613012 0.000000 0.000000 0.000000 2.694250 1.072438 -3.073449 2.943747 10.303044 14.048212 -6.408798 -3.175150 2.924004 14.661923 42.873237 41.759766 14.088552 45.086516 4.256254 0.000000 0.000000 0.000000 
2.272646 97.666855 -19.172859 0.000000 0.000000 0.000000 -6.509376 1.079032 7.182927 2.784740 22.201028 -6.617637 4.467551 1.904892 1.995198 0.106859 3.046991 -3.975821 0.548592 -1.488786 -2.408289 0.000000 0.000000 0.000000 -6.485077 2.540008 7.161211 0.089016 -11.255580 -8.437305 10.874263 7.422051 -0.928737 -9.790876 -16.639538 14.069098 4.520036 4.270460 -13.698793 0.000000 0.000000 0.000000 -7.453096 10.353199 5.937617 5.766013 -4.715703 -1.804348 4.616870 1.035295 -4.079063 0.117933 -0.683962 0.176900 0.000000 0.000000 0.000000 5.207536 3.602390 -2.249831 5.965109 3.812532 6.274549 -8.224681 -36.100326 -7.968129 0.000000 0.000000 0.000000 4.043189 3.119372 -3.596304 3.234244 -5.901517 -8.073749 3.009214 -7.384403 -1.334423 -0.485583 -22.509640 -52.535411 28.127820 -21.366099 16.236582 0.000000 0.000000 0.000000 2.100299 1.187591 -3.003978 3.297428 7.987001 11.925684 -7.410363 -3.158925 3.963366 13.807852 40.319221 41.976198 12.630592 44.348920 6.770569 0.000000 0.000000 0.000000 
2.445507 97.377121 -19.108673 0.000000 0.000000 0.000000 -6.622363 1.336914 7.018873 1.931645 21.825134 -6.083821 5.171380 1.898057 1.975836 0.490226 2.600450 -4.044703 0.480322 -1.277086 -2.708917 0.000000 0.000000 0.000000 -6.495667 2.492088 6.987167 -0.051879 -10.696611 -8.565890 11.346323 7.455740 -0.784940 -10.502253 -17.341946 14.617821 6.526898 3.950491 -13.812764 0.000000 0.000000 0.000000 -7.150114 9.953582 5.858944 4.842649 -3.994384 -1.164149 4.342227 1.035189 -4.132231 0.147897 -0.710591 0.111074 0.000000 0.000000 0.000000 4.954141 3.524082 -2.409956 5.307295 2.447644 5.882524 -13.601759 -33.514348 -11.356985 0.000000 0.000000 0.000000 3.589500 2.914375 -3.993455 3.231617 -7.503441 -7.006676 2.022455 -6.969481 -0.757503 -1.410091 -13.614673 -54.185093 31.304024 -19.656798 15.799288 0.000000 0.000000 0.000000 1.883237 1.339229 -2.907023 3.417072 6.181933 10.747273 -8.533591 -2.941062 4.996072 12.194689 37.233475 42.248036 11.419365 42.692466 9.269558 0.000000 0.000000 0.000000 
